# xmcd
#
# Track frame offsets:
#	150
#	16568
#	35220
#	54644
#	72299
#	91272
#	108741
#	128548
#	145893
#	161775
#	179919
#	199278
#
# Disc length: 2900 seconds
#
# Revision: 3
# Processed by: cddbd v1.5.2PL0 Copyright (c) Steve Scherf et al.
# Submitted via: EasyCDDAExtractor 15.3.0.1
#
DISCID=b00b520c
DTITLE=Cristian - Hoy Quiero Soñar
DYEAR=2004
DGENRE=Latin
TTITLE0=Una Cancion Para Ti
TTITLE1=Imagina
TTITLE2=Tu Vida Con La Mia
TTITLE3=Quedate En Mis Brazos
TTITLE4=Te Buscaria
TTITLE5=Atrevete
TTITLE6=Silencio
TTITLE7=Mi Castigo, Tu Desgracia
TTITLE8=Que Me Van A Hablar De Amor
TTITLE9=Vamos A Bailar
TTITLE10=Yo Dudo Que Con El
TTITLE11=Hoy Quiero Soñar
EXTD=
EXTT0=
EXTT1=
EXTT2=
EXTT3=
EXTT4=
EXTT5=
EXTT6=
EXTT7=
EXTT8=
EXTT9=
EXTT10=
EXTT11=
PLAYORDER=
